<svg xmlns="http://www.w3.org/2000/svg" xmlns:xlink="http://www.w3.org/1999/xlink" width="500" zoomAndPan="magnify" viewBox="0 0 375 374.999991" height="500" preserveAspectRatio="xMidYMid meet" version="1.2"><defs><clipPath id="000b2d6567"><path d="M 3.332031 3.332031 L 371.578125 3.332031 L 371.578125 371.578125 L 3.332031 371.578125 Z M 3.332031 3.332031 "/></clipPath><clipPath id="1374cd70db"><path d="M 282.761719 20.171875 L 337.5 20.171875 L 337.5 76.6875 L 282.761719 76.6875 Z M 282.761719 20.171875 "/></clipPath></defs><g id="af181ad2c8"><g clip-rule="nonzero" clip-path="url(#000b2d6567)"><path style=" stroke:none;fill-rule:nonzero;fill:#00bf63;fill-opacity:1;" d="M 66.867188 3.332031 C 31.667969 3.332031 3.332031 31.667969 3.332031 66.867188 L 3.332031 308.042969 C 3.332031 343.242188 31.667969 371.578125 66.867188 371.578125 L 308.042969 371.578125 C 343.242188 371.578125 371.578125 343.242188 371.578125 308.042969 L 371.578125 66.867188 C 371.578125 31.667969 343.242188 3.332031 308.042969 3.332031 Z M 66.867188 3.332031 "/></g><path style=" stroke:none;fill-rule:nonzero;fill:#ffffff;fill-opacity:1;" d="M 192.117188 52 C 157.515625 52 124.328125 65.746094 99.863281 90.214844 C 75.394531 114.683594 61.648438 147.867188 61.648438 182.472656 C 61.800781 205.195312 67.882812 227.488281 79.296875 247.136719 C 79.113281 247.421875 78.964844 247.695312 78.933594 247.945312 C 78.542969 250.75 69.289062 283.792969 64.019531 301.496094 C 60.65625 312.796875 60.542969 313.960938 62.804688 313.960938 C 63.726562 313.960938 79.050781 310.125 96.851562 305.4375 C 117.773438 299.933594 125.257812 297.9375 129.890625 296.761719 C 148.957031 307.261719 170.351562 312.824219 192.117188 312.941406 C 226.71875 312.941406 259.90625 299.195312 284.375 274.726562 C 308.839844 250.257812 322.585938 217.074219 322.585938 182.472656 C 322.585938 165.339844 319.210938 148.371094 312.65625 132.542969 C 306.097656 116.714844 296.488281 102.332031 284.375 90.214844 C 272.257812 78.101562 257.875 68.488281 242.046875 61.933594 C 226.214844 55.375 209.25 52 192.117188 52 Z M 192.117188 70.648438 C 206.800781 70.648438 221.34375 73.539062 234.910156 79.160156 C 248.476562 84.777344 260.804688 93.015625 271.1875 103.398438 C 281.574219 113.785156 289.808594 126.109375 295.429688 139.679688 C 301.050781 153.246094 303.941406 167.785156 303.941406 182.472656 C 303.941406 212.128906 292.160156 240.570312 271.1875 261.542969 C 250.21875 282.515625 221.773438 294.296875 192.117188 294.296875 C 169.949219 294.207031 148.304688 287.53125 129.941406 275.117188 L 106.734375 280.992188 C 106.691406 281.003906 106.621094 281.023438 106.574219 281.03125 C 101.714844 282.144531 92.300781 284.425781 91.914062 284.039062 C 91.527344 283.652344 92.714844 278.414062 94.96875 268.875 L 100.628906 246.53125 C 87.441406 227.769531 80.34375 205.40625 80.292969 182.472656 C 80.292969 152.8125 92.074219 124.371094 113.046875 103.398438 C 134.015625 82.429688 162.460938 70.648438 192.117188 70.648438 Z M 148.859375 120.503906 C 144.855469 120.710938 140.375 122.53125 136.941406 125.652344 C 128.949219 132.925781 126.109375 139.613281 126.058594 151.261719 C 125.992188 167.640625 135.175781 184.476562 156.015625 206.191406 C 173.566406 224.472656 186.796875 233.027344 209.484375 240.753906 C 222.085938 245.046875 226.300781 245.390625 236.132812 242.914062 C 240.433594 241.832031 245.582031 238.824219 249.886719 234.878906 C 255.910156 229.359375 256.878906 227.582031 257.671875 220.589844 L 258.167969 216.210938 C 258.285156 214.65625 256.847656 211.945312 254.75 210.742188 L 244.328125 205.667969 C 236.488281 201.851562 228.628906 198.730469 226.859375 198.730469 C 223.613281 198.730469 220.746094 201.339844 215.964844 208.640625 C 211.164062 215.964844 208.996094 216.058594 195.9375 209.507812 C 182.503906 202.769531 167.921875 189.425781 161.898438 178.363281 L 159.398438 173.777344 C 158.820312 172.695312 158.894531 170.792969 159.523438 169.902344 L 163.8125 164.292969 C 166.886719 160.265625 169.398438 155.816406 169.398438 154.402344 C 169.398438 150.679688 157.480469 123.363281 155.234375 121.933594 C 153.5 120.832031 151.265625 120.378906 148.859375 120.503906 Z M 148.859375 120.503906 "/><g clip-rule="nonzero" clip-path="url(#1374cd70db)"><path style=" stroke:none;fill-rule:nonzero;fill:#00bf63;fill-opacity:1;" d="M 282.761719 20.171875 L 337.5 20.171875 L 337.5 76.621094 L 282.761719 76.621094 Z M 282.761719 20.171875 "/></g></g></svg>