<svg width="284" height="349" viewBox="0 0 284 349" fill="none" xmlns="http://www.w3.org/2000/svg">
<g filter="url(#filter0_d_4106_517)">
<rect x="4" y="4.50293" width="276" height="340" rx="10" fill="white"/>
<circle cx="30.4067" cy="261.401" r="5" fill="#344BFD"/>
<path d="M49.1851 261.538C49.1851 262.49 49.0048 263.299 48.644 263.967C48.286 264.634 47.7974 265.144 47.178 265.497C46.5616 265.846 45.8684 266.021 45.0985 266.021C44.3229 266.021 43.6269 265.845 43.0104 265.492C42.394 265.14 41.9067 264.63 41.5488 263.963C41.1908 263.295 41.0119 262.487 41.0119 261.538C41.0119 260.586 41.1908 259.776 41.5488 259.109C41.9067 258.441 42.394 257.933 43.0104 257.583C43.6269 257.231 44.3229 257.055 45.0985 257.055C45.8684 257.055 46.5616 257.231 47.178 257.583C47.7974 257.933 48.286 258.441 48.644 259.109C49.0048 259.776 49.1851 260.586 49.1851 261.538ZM47.3144 261.538C47.3144 260.921 47.2221 260.401 47.0374 259.978C46.8556 259.555 46.5985 259.234 46.2661 259.015C45.9337 258.796 45.5445 258.687 45.0985 258.687C44.6525 258.687 44.2633 258.796 43.9309 259.015C43.5985 259.234 43.34 259.555 43.1553 259.978C42.9735 260.401 42.8826 260.921 42.8826 261.538C42.8826 262.154 42.9735 262.674 43.1553 263.098C43.34 263.521 43.5985 263.842 43.9309 264.061C44.2633 264.279 44.6525 264.389 45.0985 264.389C45.5445 264.389 45.9337 264.279 46.2661 264.061C46.5985 263.842 46.8556 263.521 47.0374 263.098C47.2221 262.674 47.3144 262.154 47.3144 261.538ZM50.5179 268.356V259.356H52.3077V260.455H52.3886C52.4682 260.279 52.5832 260.1 52.7338 259.919C52.8872 259.734 53.0861 259.58 53.3304 259.458C53.5775 259.333 53.8844 259.271 54.2508 259.271C54.7281 259.271 55.1685 259.396 55.5719 259.646C55.9753 259.893 56.2977 260.267 56.5392 260.767C56.7807 261.264 56.9014 261.887 56.9014 262.637C56.9014 263.367 56.7835 263.984 56.5477 264.487C56.3148 264.987 55.9966 265.366 55.5932 265.625C55.1926 265.88 54.7437 266.008 54.2466 266.008C53.8943 266.008 53.5946 265.95 53.3474 265.833C53.1031 265.717 52.9028 265.571 52.7466 265.394C52.5903 265.215 52.471 265.035 52.3886 264.853H52.3332V268.356H50.5179ZM52.2949 262.629C52.2949 263.018 52.3489 263.357 52.4568 263.647C52.5648 263.937 52.721 264.163 52.9256 264.325C53.1301 264.484 53.3787 264.563 53.6713 264.563C53.9668 264.563 54.2168 264.482 54.4213 264.321C54.6258 264.156 54.7807 263.928 54.8858 263.639C54.9937 263.346 55.0477 263.009 55.0477 262.629C55.0477 262.251 54.9952 261.919 54.89 261.632C54.7849 261.345 54.6301 261.12 54.4256 260.958C54.221 260.796 53.9696 260.715 53.6713 260.715C53.3758 260.715 53.1258 260.794 52.9213 260.95C52.7196 261.106 52.5648 261.328 52.4568 261.615C52.3489 261.901 52.2949 262.24 52.2949 262.629ZM61.5932 259.356V260.72H57.6514V259.356H61.5932ZM58.5463 257.788H60.3616V263.89C60.3616 264.058 60.3872 264.188 60.4383 264.282C60.4895 264.373 60.5605 264.437 60.6514 264.474C60.7452 264.511 60.8531 264.529 60.9753 264.529C61.0605 264.529 61.1457 264.522 61.231 264.508C61.3162 264.491 61.3815 264.478 61.427 264.47L61.7125 265.821C61.6216 265.849 61.4937 265.882 61.329 265.919C61.1642 265.958 60.9639 265.982 60.7281 265.991C60.2906 266.008 59.9071 265.95 59.5775 265.816C59.2508 265.683 58.9966 265.475 58.8148 265.194C58.6329 264.913 58.5435 264.558 58.5463 264.129V257.788ZM62.7757 265.901V259.356H64.591V265.901H62.7757ZM63.6876 258.512C63.4177 258.512 63.1862 258.423 62.993 258.244C62.8027 258.062 62.7075 257.845 62.7075 257.592C62.7075 257.342 62.8027 257.127 62.993 256.948C63.1862 256.767 63.4177 256.676 63.6876 256.676C63.9575 256.676 64.1876 256.767 64.378 256.948C64.5712 257.127 64.6677 257.342 64.6677 257.592C64.6677 257.845 64.5712 258.062 64.378 258.244C64.1876 258.423 63.9575 258.512 63.6876 258.512ZM69.0026 266.029C68.3407 266.029 67.7682 265.889 67.2853 265.607C66.8052 265.323 66.4344 264.928 66.1731 264.423C65.9117 263.914 65.781 263.325 65.781 262.654C65.781 261.978 65.9117 261.387 66.1731 260.882C66.4344 260.373 66.8052 259.978 67.2853 259.697C67.7682 259.413 68.3407 259.271 69.0026 259.271C69.6646 259.271 70.2356 259.413 70.7157 259.697C71.1986 259.978 71.5708 260.373 71.8322 260.882C72.0935 261.387 72.2242 261.978 72.2242 262.654C72.2242 263.325 72.0935 263.914 71.8322 264.423C71.5708 264.928 71.1986 265.323 70.7157 265.607C70.2356 265.889 69.6646 266.029 69.0026 266.029ZM69.0111 264.623C69.3123 264.623 69.5637 264.538 69.7654 264.367C69.9671 264.194 70.1191 263.958 70.2214 263.66C70.3265 263.362 70.379 263.022 70.379 262.642C70.379 262.261 70.3265 261.921 70.2214 261.623C70.1191 261.325 69.9671 261.089 69.7654 260.916C69.5637 260.742 69.3123 260.656 69.0111 260.656C68.7072 260.656 68.4515 260.742 68.2441 260.916C68.0396 261.089 67.8847 261.325 67.7796 261.623C67.6773 261.921 67.6262 262.261 67.6262 262.642C67.6262 263.022 67.6773 263.362 67.7796 263.66C67.8847 263.958 68.0396 264.194 68.2441 264.367C68.4515 264.538 68.7072 264.623 69.0111 264.623ZM75.2199 262.117V265.901H73.4046V259.356H75.1347V260.511H75.2114C75.3563 260.13 75.5992 259.829 75.9401 259.607C76.281 259.383 76.6944 259.271 77.1802 259.271C77.6347 259.271 78.031 259.37 78.3691 259.569C78.7072 259.768 78.9699 260.052 79.1574 260.421C79.3449 260.788 79.4387 261.225 79.4387 261.734V265.901H77.6234V262.058C77.6262 261.657 77.5239 261.345 77.3165 261.12C77.1092 260.893 76.8236 260.779 76.46 260.779C76.2157 260.779 75.9998 260.832 75.8123 260.937C75.6276 261.042 75.4827 261.196 75.3776 261.397C75.2753 261.596 75.2228 261.836 75.2199 262.117ZM85.1851 265.901H83.2079L86.2207 257.174H88.5985L91.607 265.901H89.6297L87.4437 259.169H87.3755L85.1851 265.901ZM85.0616 262.471H89.732V263.911H85.0616V262.471Z" fill="#767676"/>
<circle cx="30.4067" cy="322.312" r="5" fill="#F68D2B"/>
<path d="M49.1851 322.448C49.1851 323.4 49.0048 324.209 48.644 324.877C48.286 325.545 47.7974 326.055 47.178 326.407C46.5616 326.756 45.8684 326.931 45.0985 326.931C44.3229 326.931 43.6269 326.755 43.0104 326.403C42.394 326.05 41.9067 325.54 41.5488 324.873C41.1908 324.205 41.0119 323.397 41.0119 322.448C41.0119 321.496 41.1908 320.687 41.5488 320.019C41.9067 319.351 42.394 318.843 43.0104 318.493C43.6269 318.141 44.3229 317.965 45.0985 317.965C45.8684 317.965 46.5616 318.141 47.178 318.493C47.7974 318.843 48.286 319.351 48.644 320.019C49.0048 320.687 49.1851 321.496 49.1851 322.448ZM47.3144 322.448C47.3144 321.832 47.2221 321.312 47.0374 320.888C46.8556 320.465 46.5985 320.144 46.2661 319.925C45.9337 319.707 45.5445 319.597 45.0985 319.597C44.6525 319.597 44.2633 319.707 43.9309 319.925C43.5985 320.144 43.34 320.465 43.1553 320.888C42.9735 321.312 42.8826 321.832 42.8826 322.448C42.8826 323.064 42.9735 323.584 43.1553 324.008C43.34 324.431 43.5985 324.752 43.9309 324.971C44.2633 325.189 44.6525 325.299 45.0985 325.299C45.5445 325.299 45.9337 325.189 46.2661 324.971C46.5985 324.752 46.8556 324.431 47.0374 324.008C47.2221 323.584 47.3144 323.064 47.3144 322.448ZM50.5179 329.266V320.266H52.3077V321.366H52.3886C52.4682 321.189 52.5832 321.011 52.7338 320.829C52.8872 320.644 53.0861 320.491 53.3304 320.368C53.5775 320.243 53.8844 320.181 54.2508 320.181C54.7281 320.181 55.1685 320.306 55.5719 320.556C55.9753 320.803 56.2977 321.177 56.5392 321.677C56.7807 322.174 56.9014 322.797 56.9014 323.547C56.9014 324.278 56.7835 324.894 56.5477 325.397C56.3148 325.897 55.9966 326.276 55.5932 326.535C55.1926 326.79 54.7437 326.918 54.2466 326.918C53.8943 326.918 53.5946 326.86 53.3474 326.743C53.1031 326.627 52.9028 326.481 52.7466 326.305C52.5903 326.126 52.471 325.945 52.3886 325.763H52.3332V329.266H50.5179ZM52.2949 323.539C52.2949 323.928 52.3489 324.268 52.4568 324.557C52.5648 324.847 52.721 325.073 52.9256 325.235C53.1301 325.394 53.3787 325.474 53.6713 325.474C53.9668 325.474 54.2168 325.393 54.4213 325.231C54.6258 325.066 54.7807 324.839 54.8858 324.549C54.9937 324.256 55.0477 323.92 55.0477 323.539C55.0477 323.161 54.9952 322.829 54.89 322.542C54.7849 322.255 54.6301 322.03 54.4256 321.868C54.221 321.707 53.9696 321.626 53.6713 321.626C53.3758 321.626 53.1258 321.704 52.9213 321.86C52.7196 322.016 52.5648 322.238 52.4568 322.525C52.3489 322.812 52.2949 323.15 52.2949 323.539ZM61.5932 320.266V321.63H57.6514V320.266H61.5932ZM58.5463 318.698H60.3616V324.8C60.3616 324.968 60.3872 325.099 60.4383 325.192C60.4895 325.283 60.5605 325.347 60.6514 325.384C60.7452 325.421 60.8531 325.439 60.9753 325.439C61.0605 325.439 61.1457 325.432 61.231 325.418C61.3162 325.401 61.3815 325.388 61.427 325.38L61.7125 326.731C61.6216 326.759 61.4937 326.792 61.329 326.829C61.1642 326.868 60.9639 326.893 60.7281 326.901C60.2906 326.918 59.9071 326.86 59.5775 326.726C59.2508 326.593 58.9966 326.386 58.8148 326.104C58.6329 325.823 58.5435 325.468 58.5463 325.039V318.698ZM62.7757 326.812V320.266H64.591V326.812H62.7757ZM63.6876 319.422C63.4177 319.422 63.1862 319.333 62.993 319.154C62.8027 318.972 62.7075 318.755 62.7075 318.502C62.7075 318.252 62.8027 318.037 62.993 317.859C63.1862 317.677 63.4177 317.586 63.6876 317.586C63.9575 317.586 64.1876 317.677 64.378 317.859C64.5712 318.037 64.6677 318.252 64.6677 318.502C64.6677 318.755 64.5712 318.972 64.378 319.154C64.1876 319.333 63.9575 319.422 63.6876 319.422ZM69.0026 326.939C68.3407 326.939 67.7682 326.799 67.2853 326.518C66.8052 326.234 66.4344 325.839 66.1731 325.333C65.9117 324.824 65.781 324.235 65.781 323.564C65.781 322.888 65.9117 322.297 66.1731 321.792C66.4344 321.283 66.8052 320.888 67.2853 320.607C67.7682 320.323 68.3407 320.181 69.0026 320.181C69.6646 320.181 70.2356 320.323 70.7157 320.607C71.1986 320.888 71.5708 321.283 71.8322 321.792C72.0935 322.297 72.2242 322.888 72.2242 323.564C72.2242 324.235 72.0935 324.824 71.8322 325.333C71.5708 325.839 71.1986 326.234 70.7157 326.518C70.2356 326.799 69.6646 326.939 69.0026 326.939ZM69.0111 325.533C69.3123 325.533 69.5637 325.448 69.7654 325.278C69.9671 325.104 70.1191 324.868 70.2214 324.57C70.3265 324.272 70.379 323.932 70.379 323.552C70.379 323.171 70.3265 322.832 70.2214 322.533C70.1191 322.235 69.9671 321.999 69.7654 321.826C69.5637 321.653 69.3123 321.566 69.0111 321.566C68.7072 321.566 68.4515 321.653 68.2441 321.826C68.0396 321.999 67.8847 322.235 67.7796 322.533C67.6773 322.832 67.6262 323.171 67.6262 323.552C67.6262 323.932 67.6773 324.272 67.7796 324.57C67.8847 324.868 68.0396 325.104 68.2441 325.278C68.4515 325.448 68.7072 325.533 69.0111 325.533ZM75.2199 323.028V326.812H73.4046V320.266H75.1347V321.421H75.2114C75.3563 321.04 75.5992 320.739 75.9401 320.518C76.281 320.293 76.6944 320.181 77.1802 320.181C77.6347 320.181 78.031 320.28 78.3691 320.479C78.7072 320.678 78.9699 320.962 79.1574 321.332C79.3449 321.698 79.4387 322.136 79.4387 322.644V326.812H77.6234V322.968C77.6262 322.567 77.5239 322.255 77.3165 322.03C77.1092 321.803 76.8236 321.689 76.46 321.689C76.2157 321.689 75.9998 321.742 75.8123 321.847C75.6276 321.952 75.4827 322.106 75.3776 322.307C75.2753 322.506 75.2228 322.746 75.2199 323.028ZM88.6038 321.14H86.7373C86.7033 320.898 86.6337 320.684 86.5285 320.496C86.4234 320.306 86.2885 320.144 86.1237 320.011C85.9589 319.877 85.7686 319.775 85.5527 319.704C85.3396 319.633 85.1081 319.597 84.8581 319.597C84.4064 319.597 84.0129 319.709 83.6777 319.934C83.3425 320.155 83.0825 320.479 82.8979 320.905C82.7132 321.329 82.6209 321.843 82.6209 322.448C82.6209 323.07 82.7132 323.593 82.8979 324.016C83.0854 324.439 83.3467 324.759 83.682 324.975C84.0172 325.191 84.405 325.299 84.8453 325.299C85.0925 325.299 85.3212 325.266 85.5314 325.201C85.7445 325.136 85.9334 325.04 86.0981 324.915C86.2629 324.787 86.3993 324.633 86.5072 324.451C86.618 324.269 86.6947 324.062 86.7373 323.829L88.6038 323.837C88.5555 324.238 88.4348 324.624 88.2416 324.996C88.0513 325.366 87.7942 325.697 87.4703 325.989C87.1493 326.279 86.7658 326.509 86.3197 326.68C85.8766 326.847 85.3751 326.931 84.8155 326.931C84.0371 326.931 83.341 326.755 82.7274 326.403C82.1166 326.05 81.6337 325.54 81.2785 324.873C80.9263 324.205 80.7501 323.397 80.7501 322.448C80.7501 321.496 80.9291 320.687 81.2871 320.019C81.645 319.351 82.1308 318.843 82.7445 318.493C83.3581 318.141 84.0484 317.965 84.8155 317.965C85.3212 317.965 85.7899 318.036 86.2217 318.178C86.6564 318.32 87.0413 318.528 87.3766 318.8C87.7118 319.07 87.9845 319.401 88.1947 319.793C88.4078 320.185 88.5442 320.634 88.6038 321.14Z" fill="#767676"/>
<path d="M227.296 150.288C227.296 139.086 225.09 127.995 220.803 117.646C216.517 107.297 210.234 97.8943 202.314 89.9738C194.393 82.0533 184.99 75.7704 174.641 71.4838C164.293 67.1973 153.201 64.991 142 64.991L142 106.768C147.715 106.768 153.374 107.894 158.654 110.081C163.934 112.268 168.731 115.474 172.772 119.515C176.814 123.556 180.019 128.354 182.206 133.634C184.393 138.914 185.519 144.573 185.519 150.288H227.296Z" fill="#F68D2B"/>
<path d="M142 64.991C122.512 64.991 103.611 71.6644 88.4434 83.9006C73.2757 96.1369 62.7554 113.198 58.6332 132.245L99.4653 141.082C101.569 131.364 106.936 122.659 114.675 116.416C122.414 110.173 132.057 106.768 142 106.768V64.991Z" fill="#F4A79D"/>
<path d="M227.296 150.288C227.296 162.254 224.779 174.086 219.907 185.015C215.035 195.944 207.918 205.726 199.019 213.725C190.12 221.724 179.637 227.761 168.252 231.444C156.867 235.127 144.834 236.373 132.936 235.101C121.038 233.83 109.541 230.069 99.1909 224.064C88.8411 218.058 79.8708 209.942 72.8627 200.243C65.8546 190.544 60.9656 179.48 58.5134 167.768C56.0613 156.056 56.1007 143.959 58.6293 132.263L99.4633 141.091C98.1732 147.059 98.1531 153.231 99.4042 159.206C100.655 165.182 103.15 170.827 106.725 175.776C110.301 180.724 114.878 184.865 120.158 187.929C125.439 190.993 131.305 192.912 137.375 193.56C143.446 194.209 149.585 193.573 155.394 191.694C161.203 189.815 166.551 186.735 171.092 182.654C175.632 178.573 179.263 173.582 181.749 168.006C184.234 162.43 185.519 156.393 185.519 150.288H227.296Z" fill="#344BFD"/>
<g filter="url(#filter1_d_4106_517)">
<circle cx="206.761" cy="97.8076" r="15.7476" fill="#ECEAF8"/>
</g>
<path d="M196.351 100.808V99.6997L198.939 97.3026C199.16 97.0896 199.344 96.8978 199.493 96.7274C199.645 96.5569 199.76 96.39 199.838 96.2267C199.916 96.0609 199.955 95.8822 199.955 95.6904C199.955 95.4774 199.907 95.2939 199.81 95.14C199.712 94.9838 199.58 94.8642 199.412 94.7813C199.244 94.6961 199.053 94.6535 198.84 94.6535C198.618 94.6535 198.423 94.6985 198.258 94.7884C198.092 94.8784 197.964 95.0074 197.874 95.1755C197.784 95.3436 197.739 95.5436 197.739 95.7757H196.28C196.28 95.2998 196.387 94.8867 196.603 94.5363C196.818 94.1859 197.12 93.9149 197.508 93.7231C197.897 93.5313 198.344 93.4355 198.851 93.4355C199.372 93.4355 199.825 93.5278 200.211 93.7124C200.599 93.8947 200.901 94.1481 201.116 94.4724C201.332 94.7967 201.439 95.1684 201.439 95.5874C201.439 95.8621 201.385 96.1331 201.276 96.4007C201.17 96.6682 200.979 96.9653 200.704 97.292C200.43 97.6163 200.043 98.0058 199.543 98.4603L198.481 99.5008V99.5505H201.535V100.808H196.351ZM205.501 100.967C204.89 100.965 204.365 100.815 203.924 100.516C203.486 100.218 203.149 99.7861 202.912 99.2203C202.678 98.6544 202.562 97.9738 202.564 97.1784C202.564 96.3853 202.682 95.7094 202.916 95.1507C203.153 94.5919 203.49 94.167 203.928 93.8758C204.368 93.5822 204.893 93.4355 205.501 93.4355C206.11 93.4355 206.633 93.5822 207.071 93.8758C207.511 94.1694 207.85 94.5955 208.086 95.1542C208.323 95.7106 208.44 96.3853 208.438 97.1784C208.438 97.9762 208.32 98.658 208.083 99.2238C207.848 99.7896 207.512 100.222 207.074 100.52C206.636 100.818 206.112 100.967 205.501 100.967ZM205.501 99.6926C205.918 99.6926 206.25 99.483 206.499 99.064C206.748 98.645 206.871 98.0164 206.868 97.1784C206.868 96.6267 206.811 96.1675 206.698 95.8005C206.587 95.4336 206.428 95.1578 206.222 94.9731C206.018 94.7884 205.778 94.6961 205.501 94.6961C205.087 94.6961 204.755 94.9033 204.507 95.3176C204.258 95.7319 204.133 96.3521 204.13 97.1784C204.13 97.7371 204.186 98.2035 204.297 98.5775C204.411 98.9492 204.571 99.2285 204.777 99.4156C204.983 99.6002 205.224 99.6926 205.501 99.6926ZM213.515 99.444V99.0605C213.515 98.7693 213.577 98.5017 213.7 98.2579C213.825 98.0117 214.006 97.8152 214.243 97.6684C214.482 97.5193 214.773 97.4447 215.117 97.4447C215.465 97.4447 215.757 97.5181 215.994 97.6649C216.233 97.8116 216.413 98.0081 216.534 98.2544C216.657 98.4982 216.718 98.7669 216.718 99.0605V99.444C216.718 99.7352 216.657 100.004 216.534 100.25C216.41 100.494 216.229 100.689 215.99 100.836C215.751 100.985 215.46 101.06 215.117 101.06C214.769 101.06 214.476 100.985 214.24 100.836C214.003 100.689 213.823 100.494 213.7 100.25C213.577 100.004 213.515 99.7352 213.515 99.444ZM214.549 99.0605V99.444C214.549 99.6121 214.589 99.7707 214.669 99.9198C214.752 100.069 214.901 100.144 215.117 100.144C215.332 100.144 215.479 100.07 215.557 99.9234C215.638 99.7766 215.678 99.6168 215.678 99.444V99.0605C215.678 98.8876 215.64 98.7267 215.564 98.5775C215.488 98.4284 215.339 98.3538 215.117 98.3538C214.904 98.3538 214.756 98.4284 214.673 98.5775C214.59 98.7267 214.549 98.8876 214.549 99.0605ZM209.783 95.282V94.8985C209.783 94.605 209.846 94.3363 209.971 94.0924C210.097 93.8462 210.278 93.6497 210.514 93.5029C210.754 93.3561 211.042 93.2828 211.381 93.2828C211.731 93.2828 212.025 93.3561 212.262 93.5029C212.498 93.6497 212.678 93.8462 212.801 94.0924C212.924 94.3363 212.986 94.605 212.986 94.8985V95.282C212.986 95.5756 212.923 95.8443 212.798 96.0882C212.675 96.332 212.494 96.5273 212.254 96.6741C212.018 96.8185 211.727 96.8907 211.381 96.8907C211.035 96.8907 210.743 96.8173 210.504 96.6705C210.267 96.5214 210.087 96.3261 209.964 96.0846C209.843 95.8408 209.783 95.5732 209.783 95.282ZM210.823 94.8985V95.282C210.823 95.4549 210.864 95.6147 210.944 95.7615C211.027 95.9082 211.173 95.9816 211.381 95.9816C211.599 95.9816 211.747 95.9082 211.825 95.7615C211.905 95.6147 211.946 95.4549 211.946 95.282V94.8985C211.946 94.7257 211.908 94.5647 211.832 94.4156C211.756 94.2664 211.606 94.1918 211.381 94.1918C211.17 94.1918 211.025 94.2676 210.944 94.4191C210.864 94.5706 210.823 94.7304 210.823 94.8985ZM210.252 100.808L215.252 93.5349H216.182L211.182 100.808H210.252Z" fill="black"/>
<g filter="url(#filter2_d_4106_517)">
<circle cx="85.1582" cy="88.3882" r="15.7476" fill="#ECEAF8"/>
</g>
<path d="M74.7477 91.3882V90.2802L77.3365 87.8832C77.5566 87.6701 77.7413 87.4784 77.8904 87.3079C78.042 87.1375 78.1568 86.9706 78.2349 86.8072C78.313 86.6415 78.3521 86.4628 78.3521 86.271C78.3521 86.0579 78.3036 85.8745 78.2065 85.7206C78.1094 85.5643 77.9769 85.4448 77.8088 85.3619C77.6407 85.2767 77.4501 85.2341 77.237 85.2341C77.0145 85.2341 76.8204 85.279 76.6547 85.369C76.4889 85.459 76.3611 85.588 76.2711 85.7561C76.1812 85.9242 76.1362 86.1242 76.1362 86.3562H74.6767C74.6767 85.8804 74.7844 85.4673 74.9998 85.1169C75.2153 84.7665 75.5171 84.4954 75.9054 84.3037C76.2936 84.1119 76.7411 84.016 77.2477 84.016C77.7685 84.016 78.2219 84.1084 78.6078 84.293C78.996 84.4753 79.2979 84.7286 79.5133 85.053C79.7288 85.3773 79.8365 85.749 79.8365 86.168C79.8365 86.4426 79.782 86.7137 79.6731 86.9812C79.5666 87.2487 79.376 87.5459 79.1014 87.8726C78.8268 88.1969 78.4397 88.5863 77.9402 89.0409L76.8784 90.0814V90.1311H79.9324V91.3882H74.7477ZM83.8981 91.548C83.2873 91.5456 82.7617 91.3953 82.3214 91.097C81.8834 90.7987 81.546 90.3666 81.3093 89.8008C81.0749 89.235 80.9589 88.5544 80.9613 87.7589C80.9613 86.9658 81.0785 86.2899 81.3129 85.7312C81.5496 85.1725 81.887 84.7476 82.3249 84.4564C82.7653 84.1628 83.2897 84.016 83.8981 84.016C84.5065 84.016 85.0297 84.1628 85.4677 84.4564C85.908 84.7499 86.2466 85.1761 86.4833 85.7348C86.7201 86.2911 86.8372 86.9658 86.8349 87.7589C86.8349 88.5567 86.7165 89.2386 86.4798 89.8044C86.2454 90.3702 85.9092 90.8022 85.4712 91.1005C85.0333 91.3988 84.5089 91.548 83.8981 91.548ZM83.8981 90.2731C84.3147 90.2731 84.6474 90.0636 84.896 89.6446C85.1445 89.2255 85.2676 88.597 85.2653 87.7589C85.2653 87.2073 85.2085 86.748 85.0948 86.3811C84.9835 86.0141 84.8249 85.7383 84.619 85.5537C84.4154 85.369 84.1751 85.2767 83.8981 85.2767C83.4838 85.2767 83.1523 85.4838 82.9038 85.8981C82.6552 86.3124 82.5297 86.9327 82.5273 87.7589C82.5273 88.3176 82.583 88.784 82.6942 89.1581C82.8079 89.5298 82.9677 89.8091 83.1737 89.9961C83.3796 90.1808 83.6211 90.2731 83.8981 90.2731ZM91.9121 90.0245V89.641C91.9121 89.3498 91.9737 89.0823 92.0968 88.8385C92.2222 88.5923 92.4033 88.3958 92.6401 88.249C92.8792 88.0998 93.1704 88.0253 93.5137 88.0253C93.8617 88.0253 94.1541 88.0986 94.3908 88.2454C94.6299 88.3922 94.8098 88.5887 94.9306 88.8349C95.0537 89.0788 95.1152 89.3475 95.1152 89.641V90.0245C95.1152 90.3157 95.0537 90.5844 94.9306 90.8307C94.8075 91.0745 94.6264 91.2698 94.3873 91.4166C94.1481 91.5657 93.8569 91.6403 93.5137 91.6403C93.1657 91.6403 92.8733 91.5657 92.6365 91.4166C92.3998 91.2698 92.2199 91.0745 92.0968 90.8307C91.9737 90.5844 91.9121 90.3157 91.9121 90.0245ZM92.9455 89.641V90.0245C92.9455 90.1926 92.9857 90.3513 93.0662 90.5004C93.1491 90.6495 93.2982 90.7241 93.5137 90.7241C93.7291 90.7241 93.8759 90.6507 93.954 90.504C94.0345 90.3572 94.0748 90.1974 94.0748 90.0245V89.641C94.0748 89.4682 94.0369 89.3072 93.9611 89.1581C93.8854 89.0089 93.7362 88.9343 93.5137 88.9343C93.3006 88.9343 93.1526 89.0089 93.0698 89.1581C92.9869 89.3072 92.9455 89.4682 92.9455 89.641ZM88.1799 85.8626V85.4791C88.1799 85.1855 88.2426 84.9168 88.3681 84.673C88.4935 84.4268 88.6747 84.2303 88.9114 84.0835C89.1505 83.9367 89.4393 83.8633 89.7779 83.8633C90.1283 83.8633 90.4218 83.9367 90.6586 84.0835C90.8953 84.2303 91.0752 84.4268 91.1983 84.673C91.3214 84.9168 91.383 85.1855 91.383 85.4791V85.8626C91.383 86.1562 91.3203 86.4249 91.1948 86.6687C91.0717 86.9126 90.8906 87.1079 90.6515 87.2547C90.4147 87.3991 90.1235 87.4713 89.7779 87.4713C89.4322 87.4713 89.1399 87.3979 88.9007 87.2511C88.664 87.102 88.4841 86.9066 88.361 86.6652C88.2402 86.4213 88.1799 86.1538 88.1799 85.8626ZM89.2203 85.4791V85.8626C89.2203 86.0354 89.2606 86.1952 89.3411 86.342C89.4239 86.4888 89.5695 86.5622 89.7779 86.5622C89.9957 86.5622 90.1436 86.4888 90.2218 86.342C90.3023 86.1952 90.3425 86.0354 90.3425 85.8626V85.4791C90.3425 85.3063 90.3046 85.1453 90.2289 84.9961C90.1531 84.847 90.0028 84.7724 89.7779 84.7724C89.5672 84.7724 89.4216 84.8482 89.3411 84.9997C89.2606 85.1512 89.2203 85.311 89.2203 85.4791ZM88.6486 91.3882L93.6486 84.1155H94.579L89.579 91.3882H88.6486Z" fill="black"/>
<g filter="url(#filter3_d_4106_517)">
<circle cx="94.6636" cy="217.154" r="15.7476" fill="#ECEAF8"/>
</g>
<path d="M87.0443 220.254C86.6702 220.252 86.3092 220.189 85.9612 220.066C85.6155 219.943 85.3054 219.743 85.0308 219.466C84.7561 219.189 84.5383 218.822 84.3774 218.365C84.2187 217.908 84.1394 217.347 84.1394 216.681C84.1418 216.071 84.2116 215.525 84.3489 215.044C84.4886 214.561 84.6875 214.152 84.9455 213.816C85.206 213.48 85.5173 213.224 85.8795 213.049C86.2417 212.871 86.6477 212.782 87.0975 212.782C87.5828 212.782 88.0113 212.877 88.383 213.066C88.7547 213.253 89.053 213.508 89.2779 213.83C89.5052 214.152 89.6425 214.513 89.6899 214.913H88.1735C88.1143 214.66 87.99 214.461 87.8006 214.316C87.6113 214.172 87.3769 214.1 87.0975 214.1C86.624 214.1 86.2642 214.306 86.018 214.718C85.7741 215.13 85.6498 215.69 85.6451 216.397H85.6948C85.8037 216.182 85.9505 215.998 86.1352 215.847C86.3222 215.693 86.5341 215.576 86.7708 215.495C87.0099 215.413 87.2621 215.371 87.5272 215.371C87.9581 215.371 88.3416 215.473 88.6778 215.676C89.014 215.878 89.2791 216.155 89.4732 216.507C89.6674 216.86 89.7644 217.264 89.7644 217.718C89.7644 218.211 89.6496 218.649 89.42 219.032C89.1927 219.416 88.8743 219.717 88.4647 219.934C88.0575 220.15 87.584 220.256 87.0443 220.254ZM87.0372 219.047C87.2739 219.047 87.4858 218.99 87.6728 218.876C87.8598 218.762 88.0066 218.609 88.1131 218.414C88.2197 218.22 88.2729 218.002 88.2729 217.761C88.2729 217.52 88.2197 217.303 88.1131 217.111C88.009 216.919 87.8646 216.767 87.6799 216.653C87.4953 216.539 87.2845 216.483 87.0478 216.483C86.8703 216.483 86.7057 216.516 86.5542 216.582C86.4051 216.648 86.2737 216.741 86.16 216.859C86.0488 216.977 85.9612 217.115 85.8972 217.271C85.8333 217.425 85.8014 217.589 85.8014 217.765C85.8014 217.999 85.8546 218.213 85.9612 218.407C86.0701 218.601 86.2168 218.757 86.4015 218.873C86.5885 218.989 86.8004 219.047 87.0372 219.047ZM93.7062 220.314C93.0954 220.312 92.5698 220.162 92.1295 219.863C91.6915 219.565 91.3542 219.133 91.1174 218.567C90.883 218.001 90.767 217.321 90.7694 216.525C90.7694 215.732 90.8866 215.056 91.121 214.498C91.3577 213.939 91.6951 213.514 92.133 213.223C92.5734 212.929 93.0978 212.782 93.7062 212.782C94.3146 212.782 94.8378 212.929 95.2758 213.223C95.7161 213.516 96.0547 213.942 96.2914 214.501C96.5282 215.057 96.6453 215.732 96.643 216.525C96.643 217.323 96.5246 218.005 96.2879 218.571C96.0535 219.136 95.7173 219.569 95.2793 219.867C94.8414 220.165 94.317 220.314 93.7062 220.314ZM93.7062 219.039C94.1229 219.039 94.4555 218.83 94.7041 218.411C94.9526 217.992 95.0757 217.363 95.0734 216.525C95.0734 215.974 95.0166 215.514 94.9029 215.147C94.7917 214.78 94.633 214.505 94.4271 214.32C94.2235 214.135 93.9832 214.043 93.7062 214.043C93.2919 214.043 92.9604 214.25 92.7119 214.664C92.4633 215.079 92.3378 215.699 92.3354 216.525C92.3354 217.084 92.3911 217.55 92.5024 217.924C92.616 218.296 92.7758 218.575 92.9818 218.762C93.1877 218.947 93.4292 219.039 93.7062 219.039ZM101.72 218.791V218.407C101.72 218.116 101.782 217.849 101.905 217.605C102.03 217.359 102.211 217.162 102.448 217.015C102.687 216.866 102.979 216.792 103.322 216.792C103.67 216.792 103.962 216.865 104.199 217.012C104.438 217.159 104.618 217.355 104.739 217.601C104.862 217.845 104.923 218.114 104.923 218.407V218.791C104.923 219.082 104.862 219.351 104.739 219.597C104.616 219.841 104.434 220.036 104.195 220.183C103.956 220.332 103.665 220.407 103.322 220.407C102.974 220.407 102.681 220.332 102.445 220.183C102.208 220.036 102.028 219.841 101.905 219.597C101.782 219.351 101.72 219.082 101.72 218.791ZM102.754 218.407V218.791C102.754 218.959 102.794 219.118 102.874 219.267C102.957 219.416 103.106 219.49 103.322 219.49C103.537 219.49 103.684 219.417 103.762 219.27C103.843 219.123 103.883 218.964 103.883 218.791V218.407C103.883 218.234 103.845 218.074 103.769 217.924C103.693 217.775 103.544 217.701 103.322 217.701C103.109 217.701 102.961 217.775 102.878 217.924C102.795 218.074 102.754 218.234 102.754 218.407ZM97.988 214.629V214.245C97.988 213.952 98.0507 213.683 98.1762 213.439C98.3017 213.193 98.4828 212.997 98.7195 212.85C98.9586 212.703 99.2474 212.63 99.586 212.63C99.9364 212.63 100.23 212.703 100.467 212.85C100.703 212.997 100.883 213.193 101.006 213.439C101.13 213.683 101.191 213.952 101.191 214.245V214.629C101.191 214.922 101.128 215.191 101.003 215.435C100.88 215.679 100.699 215.874 100.46 216.021C100.223 216.165 99.9316 216.238 99.586 216.238C99.2403 216.238 98.948 216.164 98.7089 216.017C98.4721 215.868 98.2922 215.673 98.1691 215.431C98.0483 215.188 97.988 214.92 97.988 214.629ZM99.0285 214.245V214.629C99.0285 214.802 99.0687 214.962 99.1492 215.108C99.2321 215.255 99.3776 215.328 99.586 215.328C99.8038 215.328 99.9517 215.255 100.03 215.108C100.11 214.962 100.151 214.802 100.151 214.629V214.245C100.151 214.073 100.113 213.912 100.037 213.762C99.9612 213.613 99.8109 213.539 99.586 213.539C99.3753 213.539 99.2297 213.614 99.1492 213.766C99.0687 213.918 99.0285 214.077 99.0285 214.245ZM98.4567 220.154L103.457 212.882H104.387L99.3871 220.154H98.4567Z" fill="black"/>
<path d="M20.3734 28.0806L21.4067 29.114L16.1067 34.414L21.4067 39.714L20.3734 40.7473L14.0734 34.414L20.3734 28.0806Z" fill="#717171"/>
<path d="M256.44 28.0806L255.407 29.114L260.707 34.414L255.407 39.714L256.44 40.7473L262.74 34.414L256.44 28.0806Z" fill="#717171"/>
<path d="M106.772 30.9851H109.048L111.451 36.8488H111.553L113.957 30.9851H116.232V39.7124H114.443V34.032H114.37L112.112 39.6698H110.893L108.634 34.0107H108.562V39.7124H106.772V30.9851ZM119.585 39.836C119.167 39.836 118.795 39.7635 118.469 39.6187C118.142 39.4709 117.883 39.2536 117.693 38.9667C117.506 38.6769 117.412 38.3161 117.412 37.8843C117.412 37.5206 117.479 37.2152 117.612 36.9681C117.746 36.7209 117.927 36.5221 118.157 36.3715C118.388 36.2209 118.649 36.1073 118.942 36.0306C119.237 35.9539 119.547 35.8999 119.871 35.8687C120.251 35.8289 120.558 35.7919 120.791 35.7579C121.024 35.7209 121.193 35.6669 121.298 35.5959C121.403 35.5249 121.456 35.4198 121.456 35.2806V35.255C121.456 34.9851 121.371 34.7763 121.2 34.6286C121.032 34.4809 120.794 34.407 120.484 34.407C120.157 34.407 119.898 34.4794 119.704 34.6243C119.511 34.7664 119.383 34.9454 119.321 35.1613L117.642 35.0249C117.727 34.6272 117.895 34.2834 118.145 33.9937C118.395 33.701 118.717 33.4766 119.112 33.3204C119.51 33.1613 119.97 33.0817 120.493 33.0817C120.856 33.0817 121.204 33.1243 121.537 33.2096C121.872 33.2948 122.169 33.4269 122.427 33.6059C122.689 33.7848 122.895 34.015 123.045 34.2962C123.196 34.5746 123.271 34.9084 123.271 35.2976V39.7124H121.55V38.8047H121.498C121.393 39.0093 121.253 39.1897 121.077 39.3459C120.9 39.4993 120.689 39.6201 120.442 39.7081C120.194 39.7934 119.909 39.836 119.585 39.836ZM120.105 38.5831C120.372 38.5831 120.608 38.5306 120.812 38.4255C121.017 38.3175 121.177 38.1726 121.294 37.9908C121.41 37.809 121.469 37.603 121.469 37.3729V36.6783C121.412 36.7152 121.334 36.7493 121.234 36.7806C121.138 36.809 121.028 36.836 120.906 36.8615C120.784 36.8843 120.662 36.9056 120.54 36.9255C120.417 36.9425 120.307 36.9581 120.207 36.9723C119.994 37.0036 119.808 37.0533 119.649 37.1215C119.49 37.1897 119.366 37.282 119.278 37.3985C119.19 37.5121 119.146 37.6542 119.146 37.8246C119.146 38.0718 119.236 38.2607 119.415 38.3914C119.596 38.5192 119.827 38.5831 120.105 38.5831ZM124.68 39.7124V33.1669H126.439V34.309H126.508C126.627 33.9027 126.827 33.5959 127.108 33.3885C127.39 33.1783 127.714 33.0732 128.08 33.0732C128.171 33.0732 128.269 33.0789 128.374 33.0902C128.479 33.1016 128.572 33.1172 128.651 33.1371V34.7479C128.566 34.7223 128.448 34.6996 128.297 34.6797C128.147 34.6598 128.009 34.6499 127.884 34.6499C127.617 34.6499 127.378 34.7081 127.168 34.8246C126.961 34.9383 126.796 35.0973 126.674 35.3019C126.555 35.5064 126.495 35.7422 126.495 36.0093V39.7124H124.68ZM132.242 39.8402C131.572 39.8402 130.995 39.6982 130.512 39.4141C130.032 39.1272 129.663 38.7294 129.404 38.2209C129.149 37.7124 129.021 37.1272 129.021 36.4652C129.021 35.7948 129.15 35.2067 129.409 34.701C129.67 34.1925 130.041 33.7962 130.521 33.5121C131.001 33.2252 131.572 33.0817 132.234 33.0817C132.805 33.0817 133.305 33.1854 133.734 33.3928C134.163 33.6002 134.502 33.8914 134.752 34.2664C135.002 34.6414 135.14 35.0817 135.166 35.5874H133.453C133.404 35.2607 133.276 34.9979 133.069 34.799C132.865 34.5973 132.596 34.4965 132.264 34.4965C131.982 34.4965 131.737 34.5732 131.526 34.7266C131.319 34.8772 131.157 35.0973 131.041 35.3871C130.924 35.6769 130.866 36.0277 130.866 36.4397C130.866 36.8573 130.923 37.2124 131.036 37.505C131.153 37.7976 131.316 38.0206 131.526 38.174C131.737 38.3275 131.982 38.4042 132.264 38.4042C132.471 38.4042 132.657 38.3616 132.822 38.2763C132.99 38.1911 133.127 38.0675 133.235 37.9056C133.346 37.7408 133.419 37.5434 133.453 37.3133H135.166C135.137 37.8133 135.001 38.2536 134.757 38.6343C134.515 39.0121 134.181 39.3076 133.755 39.5206C133.329 39.7337 132.825 39.8402 132.242 39.8402ZM138.143 35.9283V39.7124H136.328V30.9851H138.092V34.3218H138.169C138.317 33.9354 138.555 33.6329 138.885 33.4141C139.214 33.1925 139.628 33.0817 140.125 33.0817C140.579 33.0817 140.976 33.1812 141.314 33.38C141.655 33.576 141.919 33.8587 142.106 34.228C142.297 34.5945 142.39 35.0334 142.388 35.5448V39.7124H140.572V35.8687C140.575 35.4652 140.473 35.1513 140.265 34.9269C140.061 34.7025 139.774 34.5902 139.405 34.5902C139.157 34.5902 138.939 34.6428 138.748 34.7479C138.561 34.853 138.413 35.0064 138.305 35.2081C138.2 35.407 138.146 35.6471 138.143 35.9283ZM146.577 39.7124V38.3829L149.683 35.5064C149.947 35.2508 150.169 35.0206 150.348 34.8161C150.53 34.6115 150.667 34.4113 150.761 34.2152C150.855 34.0164 150.902 33.8019 150.902 33.5718C150.902 33.3161 150.844 33.0959 150.727 32.9113C150.611 32.7238 150.452 32.5803 150.25 32.4809C150.048 32.3786 149.819 32.3275 149.564 32.3275C149.297 32.3275 149.064 32.3814 148.865 32.4894C148.666 32.5973 148.513 32.7522 148.405 32.9539C148.297 33.1556 148.243 33.3956 148.243 33.674H146.491C146.491 33.103 146.621 32.6073 146.879 32.1868C147.138 31.7664 147.5 31.4411 147.966 31.211C148.432 30.9809 148.969 30.8658 149.577 30.8658C150.202 30.8658 150.746 30.9766 151.209 31.1982C151.675 31.4169 152.037 31.7209 152.295 32.1101C152.554 32.4993 152.683 32.9454 152.683 33.4482C152.683 33.7777 152.618 34.103 152.487 34.424C152.359 34.7451 152.131 35.1016 151.801 35.4937C151.471 35.8829 151.007 36.3502 150.407 36.8956L149.133 38.1442V38.2039H152.798V39.7124H146.577ZM157.557 39.9042C156.824 39.9013 156.193 39.7209 155.665 39.363C155.139 39.005 154.735 38.4866 154.45 37.8076C154.169 37.1286 154.03 36.3118 154.033 35.3573C154.033 34.4056 154.173 33.5945 154.455 32.924C154.739 32.2536 155.144 31.7437 155.669 31.3942C156.198 31.0419 156.827 30.8658 157.557 30.8658C158.287 30.8658 158.915 31.0419 159.441 31.3942C159.969 31.7465 160.375 32.2579 160.659 32.9283C160.943 33.5959 161.084 34.4056 161.081 35.3573C161.081 36.3147 160.939 37.1329 160.655 37.8118C160.374 38.4908 159.97 39.0093 159.445 39.3672C158.919 39.7252 158.29 39.9042 157.557 39.9042ZM157.557 38.3743C158.057 38.3743 158.456 38.1229 158.754 37.6201C159.053 37.1172 159.2 36.363 159.198 35.3573C159.198 34.6954 159.129 34.1442 158.993 33.7039C158.86 33.2635 158.669 32.9326 158.422 32.711C158.178 32.4894 157.889 32.3786 157.557 32.3786C157.06 32.3786 156.662 32.6272 156.364 33.1243C156.066 33.6215 155.915 34.3658 155.912 35.3573C155.912 36.0277 155.979 36.5874 156.112 37.0363C156.249 37.4823 156.441 37.8175 156.688 38.0419C156.935 38.2635 157.225 38.3743 157.557 38.3743ZM162.397 39.7124V38.3829L165.503 35.5064C165.768 35.2508 165.989 35.0206 166.168 34.8161C166.35 34.6115 166.488 34.4113 166.581 34.2152C166.675 34.0164 166.722 33.8019 166.722 33.5718C166.722 33.3161 166.664 33.0959 166.547 32.9113C166.431 32.7238 166.272 32.5803 166.07 32.4809C165.868 32.3786 165.64 32.3275 165.384 32.3275C165.117 32.3275 164.884 32.3814 164.685 32.4894C164.486 32.5973 164.333 32.7522 164.225 32.9539C164.117 33.1556 164.063 33.3956 164.063 33.674H162.312C162.312 33.103 162.441 32.6073 162.699 32.1868C162.958 31.7664 163.32 31.4411 163.786 31.211C164.252 30.9809 164.789 30.8658 165.397 30.8658C166.022 30.8658 166.566 30.9766 167.029 31.1982C167.495 31.4169 167.857 31.7209 168.116 32.1101C168.374 32.4993 168.503 32.9454 168.503 33.4482C168.503 33.7777 168.438 34.103 168.307 34.424C168.18 34.7451 167.951 35.1016 167.621 35.4937C167.292 35.8829 166.827 36.3502 166.228 36.8956L164.954 38.1442V38.2039H168.618V39.7124H162.397ZM173.181 39.8317C172.545 39.8317 171.978 39.7223 171.481 39.5036C170.987 39.282 170.596 38.978 170.309 38.5917C170.025 38.2025 169.879 37.7536 169.87 37.2451H171.728C171.74 37.4581 171.809 37.6456 171.937 37.8076C172.068 37.9667 172.241 38.0902 172.457 38.1783C172.673 38.2664 172.916 38.3104 173.186 38.3104C173.467 38.3104 173.715 38.2607 173.931 38.1613C174.147 38.0618 174.316 37.9241 174.438 37.7479C174.561 37.5718 174.622 37.3687 174.622 37.1385C174.622 36.9056 174.556 36.6996 174.426 36.5206C174.298 36.3388 174.113 36.1968 173.872 36.0945C173.633 35.9922 173.349 35.9411 173.019 35.9411H172.205V34.586H173.019C173.298 34.586 173.544 34.5377 173.757 34.4411C173.972 34.3445 174.14 34.211 174.259 34.0405C174.379 33.8672 174.438 33.6655 174.438 33.4354C174.438 33.2167 174.386 33.0249 174.281 32.8601C174.178 32.6925 174.034 32.5618 173.846 32.4681C173.661 32.3743 173.445 32.3275 173.198 32.3275C172.948 32.3275 172.72 32.3729 172.512 32.4638C172.305 32.5519 172.139 32.6783 172.014 32.8431C171.889 33.0079 171.822 33.201 171.813 33.4226H170.045C170.053 32.9198 170.197 32.4766 170.475 32.0931C170.754 31.7096 171.129 31.4098 171.6 31.1939C172.075 30.9752 172.61 30.8658 173.207 30.8658C173.809 30.8658 174.336 30.9752 174.788 31.1939C175.24 31.4127 175.59 31.7081 175.84 32.0803C176.093 32.4496 176.218 32.8644 176.215 33.3246C176.218 33.8133 176.066 34.2209 175.759 34.5476C175.455 34.8743 175.059 35.0817 174.57 35.1698V35.238C175.213 35.3204 175.701 35.5434 176.036 35.907C176.374 36.2678 176.542 36.7195 176.539 37.2621C176.542 37.7593 176.399 38.201 176.109 38.5874C175.822 38.9738 175.426 39.2777 174.92 39.4993C174.414 39.7209 173.835 39.8317 173.181 39.8317Z" fill="#2E2E30"/>
<circle cx="30.4067" cy="291.857" r="5" fill="#F4A79D"/>
<path d="M49.1851 291.993C49.1851 292.945 49.0048 293.754 48.644 294.422C48.286 295.09 47.7974 295.599 47.178 295.952C46.5616 296.301 45.8684 296.476 45.0985 296.476C44.3229 296.476 43.6269 296.3 43.0104 295.947C42.394 295.595 41.9067 295.085 41.5488 294.418C41.1908 293.75 41.0119 292.942 41.0119 291.993C41.0119 291.041 41.1908 290.232 41.5488 289.564C41.9067 288.896 42.394 288.388 43.0104 288.038C43.6269 287.686 44.3229 287.51 45.0985 287.51C45.8684 287.51 46.5616 287.686 47.178 288.038C47.7974 288.388 48.286 288.896 48.644 289.564C49.0048 290.232 49.1851 291.041 49.1851 291.993ZM47.3144 291.993C47.3144 291.376 47.2221 290.857 47.0374 290.433C46.8556 290.01 46.5985 289.689 46.2661 289.47C45.9337 289.251 45.5445 289.142 45.0985 289.142C44.6525 289.142 44.2633 289.251 43.9309 289.47C43.5985 289.689 43.34 290.01 43.1553 290.433C42.9735 290.857 42.8826 291.376 42.8826 291.993C42.8826 292.609 42.9735 293.129 43.1553 293.553C43.34 293.976 43.5985 294.297 43.9309 294.516C44.2633 294.734 44.6525 294.844 45.0985 294.844C45.5445 294.844 45.9337 294.734 46.2661 294.516C46.5985 294.297 46.8556 293.976 47.0374 293.553C47.2221 293.129 47.3144 292.609 47.3144 291.993ZM50.5179 298.811V289.811H52.3077V290.911H52.3886C52.4682 290.734 52.5832 290.555 52.7338 290.374C52.8872 290.189 53.0861 290.036 53.3304 289.913C53.5775 289.788 53.8844 289.726 54.2508 289.726C54.7281 289.726 55.1685 289.851 55.5719 290.101C55.9753 290.348 56.2977 290.722 56.5392 291.222C56.7807 291.719 56.9014 292.342 56.9014 293.092C56.9014 293.822 56.7835 294.439 56.5477 294.942C56.3148 295.442 55.9966 295.821 55.5932 296.08C55.1926 296.335 54.7437 296.463 54.2466 296.463C53.8943 296.463 53.5946 296.405 53.3474 296.288C53.1031 296.172 52.9028 296.026 52.7466 295.849C52.5903 295.67 52.471 295.49 52.3886 295.308H52.3332V298.811H50.5179ZM52.2949 293.084C52.2949 293.473 52.3489 293.813 52.4568 294.102C52.5648 294.392 52.721 294.618 52.9256 294.78C53.1301 294.939 53.3787 295.018 53.6713 295.018C53.9668 295.018 54.2168 294.938 54.4213 294.776C54.6258 294.611 54.7807 294.384 54.8858 294.094C54.9937 293.801 55.0477 293.465 55.0477 293.084C55.0477 292.706 54.9952 292.374 54.89 292.087C54.7849 291.8 54.6301 291.575 54.4256 291.413C54.221 291.251 53.9696 291.17 53.6713 291.17C53.3758 291.17 53.1258 291.249 52.9213 291.405C52.7196 291.561 52.5648 291.783 52.4568 292.07C52.3489 292.357 52.2949 292.695 52.2949 293.084ZM61.5932 289.811V291.175H57.6514V289.811H61.5932ZM58.5463 288.243H60.3616V294.345C60.3616 294.513 60.3872 294.643 60.4383 294.737C60.4895 294.828 60.5605 294.892 60.6514 294.929C60.7452 294.966 60.8531 294.984 60.9753 294.984C61.0605 294.984 61.1457 294.977 61.231 294.963C61.3162 294.946 61.3815 294.933 61.427 294.925L61.7125 296.276C61.6216 296.304 61.4937 296.337 61.329 296.374C61.1642 296.413 60.9639 296.438 60.7281 296.446C60.2906 296.463 59.9071 296.405 59.5775 296.271C59.2508 296.138 58.9966 295.93 58.8148 295.649C58.6329 295.368 58.5435 295.013 58.5463 294.584V288.243ZM62.7757 296.357V289.811H64.591V296.357H62.7757ZM63.6876 288.967C63.4177 288.967 63.1862 288.878 62.993 288.699C62.8027 288.517 62.7075 288.3 62.7075 288.047C62.7075 287.797 62.8027 287.582 62.993 287.403C63.1862 287.222 63.4177 287.131 63.6876 287.131C63.9575 287.131 64.1876 287.222 64.378 287.403C64.5712 287.582 64.6677 287.797 64.6677 288.047C64.6677 288.3 64.5712 288.517 64.378 288.699C64.1876 288.878 63.9575 288.967 63.6876 288.967ZM69.0026 296.484C68.3407 296.484 67.7682 296.344 67.2853 296.063C66.8052 295.778 66.4344 295.384 66.1731 294.878C65.9117 294.369 65.781 293.78 65.781 293.109C65.781 292.433 65.9117 291.842 66.1731 291.337C66.4344 290.828 66.8052 290.433 67.2853 290.152C67.7682 289.868 68.3407 289.726 69.0026 289.726C69.6646 289.726 70.2356 289.868 70.7157 290.152C71.1986 290.433 71.5708 290.828 71.8322 291.337C72.0935 291.842 72.2242 292.433 72.2242 293.109C72.2242 293.78 72.0935 294.369 71.8322 294.878C71.5708 295.384 71.1986 295.778 70.7157 296.063C70.2356 296.344 69.6646 296.484 69.0026 296.484ZM69.0111 295.078C69.3123 295.078 69.5637 294.993 69.7654 294.822C69.9671 294.649 70.1191 294.413 70.2214 294.115C70.3265 293.817 70.379 293.477 70.379 293.097C70.379 292.716 70.3265 292.376 70.2214 292.078C70.1191 291.78 69.9671 291.544 69.7654 291.371C69.5637 291.197 69.3123 291.111 69.0111 291.111C68.7072 291.111 68.4515 291.197 68.2441 291.371C68.0396 291.544 67.8847 291.78 67.7796 292.078C67.6773 292.376 67.6262 292.716 67.6262 293.097C67.6262 293.477 67.6773 293.817 67.7796 294.115C67.8847 294.413 68.0396 294.649 68.2441 294.822C68.4515 294.993 68.7072 295.078 69.0111 295.078ZM75.2199 292.572V296.357H73.4046V289.811H75.1347V290.966H75.2114C75.3563 290.585 75.5992 290.284 75.9401 290.063C76.281 289.838 76.6944 289.726 77.1802 289.726C77.6347 289.726 78.031 289.825 78.3691 290.024C78.7072 290.223 78.9699 290.507 79.1574 290.876C79.3449 291.243 79.4387 291.68 79.4387 292.189V296.357H77.6234V292.513C77.6262 292.112 77.5239 291.8 77.3165 291.575C77.1092 291.348 76.8236 291.234 76.46 291.234C76.2157 291.234 75.9998 291.287 75.8123 291.392C75.6276 291.497 75.4827 291.651 75.3776 291.852C75.2753 292.051 75.2228 292.291 75.2199 292.572ZM83.6809 296.357V287.629H87.1752C87.8172 287.629 88.3528 287.724 88.7817 287.915C89.2107 288.105 89.5332 288.369 89.7491 288.707C89.965 289.043 90.0729 289.429 90.0729 289.867C90.0729 290.207 90.0047 290.507 89.8684 290.766C89.732 291.021 89.5445 291.232 89.3059 291.396C89.0701 291.558 88.8002 291.673 88.4962 291.742V291.827C88.8286 291.841 89.1397 291.935 89.4295 292.108C89.7221 292.281 89.9593 292.524 90.1411 292.837C90.3229 293.146 90.4138 293.516 90.4138 293.945C90.4138 294.408 90.2988 294.821 90.0687 295.185C89.8414 295.545 89.5047 295.831 89.0587 296.041C88.6127 296.251 88.063 296.357 87.4096 296.357H83.6809ZM85.5261 294.848H87.0303C87.5445 294.848 87.9195 294.75 88.1553 294.554C88.3911 294.355 88.509 294.091 88.509 293.761C88.509 293.52 88.4508 293.307 88.3343 293.122C88.2178 292.938 88.0516 292.793 87.8357 292.688C87.6226 292.582 87.3684 292.53 87.0729 292.53H85.5261V294.848ZM85.5261 291.281H86.894C87.1468 291.281 87.3712 291.237 87.5672 291.149C87.7661 291.058 87.9224 290.93 88.036 290.766C88.1525 290.601 88.2107 290.403 88.2107 290.173C88.2107 289.858 88.0985 289.604 87.8741 289.411C87.6525 289.217 87.3371 289.121 86.928 289.121H85.5261V291.281Z" fill="#767676"/>
<path d="M233.079 326.812V325.482L236.186 322.606C236.45 322.35 236.671 322.12 236.85 321.915C237.032 321.711 237.17 321.511 237.264 321.314C237.357 321.116 237.404 320.901 237.404 320.671C237.404 320.415 237.346 320.195 237.23 320.011C237.113 319.823 236.954 319.68 236.752 319.58C236.551 319.478 236.322 319.427 236.066 319.427C235.799 319.427 235.566 319.481 235.367 319.589C235.168 319.697 235.015 319.851 234.907 320.053C234.799 320.255 234.745 320.495 234.745 320.773H232.994C232.994 320.202 233.123 319.707 233.382 319.286C233.64 318.866 234.002 318.54 234.468 318.31C234.934 318.08 235.471 317.965 236.079 317.965C236.704 317.965 237.248 318.076 237.711 318.297C238.177 318.516 238.539 318.82 238.798 319.209C239.056 319.599 239.186 320.045 239.186 320.547C239.186 320.877 239.12 321.202 238.989 321.523C238.862 321.844 238.633 322.201 238.303 322.593C237.974 322.982 237.509 323.449 236.91 323.995L235.636 325.243V325.303H239.301V326.812H233.079ZM244.059 327.003C243.326 327.001 242.696 326.82 242.167 326.462C241.642 326.104 241.237 325.586 240.953 324.907C240.672 324.228 240.532 323.411 240.535 322.457C240.535 321.505 240.676 320.694 240.957 320.023C241.241 319.353 241.646 318.843 242.172 318.493C242.7 318.141 243.329 317.965 244.059 317.965C244.79 317.965 245.417 318.141 245.943 318.493C246.471 318.846 246.878 319.357 247.162 320.028C247.446 320.695 247.586 321.505 247.584 322.457C247.584 323.414 247.442 324.232 247.157 324.911C246.876 325.59 246.473 326.109 245.947 326.466C245.422 326.824 244.792 327.003 244.059 327.003ZM244.059 325.474C244.559 325.474 244.959 325.222 245.257 324.719C245.555 324.216 245.703 323.462 245.7 322.457C245.7 321.795 245.632 321.243 245.496 320.803C245.362 320.363 245.172 320.032 244.924 319.81C244.68 319.589 244.392 319.478 244.059 319.478C243.562 319.478 243.165 319.726 242.866 320.224C242.568 320.721 242.417 321.465 242.415 322.457C242.415 323.127 242.481 323.687 242.615 324.136C242.751 324.582 242.943 324.917 243.19 325.141C243.437 325.363 243.727 325.474 244.059 325.474ZM253.676 325.175V324.715C253.676 324.366 253.75 324.045 253.898 323.752C254.048 323.457 254.266 323.221 254.55 323.045C254.837 322.866 255.186 322.776 255.598 322.776C256.016 322.776 256.367 322.864 256.651 323.04C256.938 323.216 257.154 323.452 257.298 323.748C257.446 324.04 257.52 324.363 257.52 324.715V325.175C257.52 325.525 257.446 325.847 257.298 326.143C257.151 326.435 256.933 326.67 256.646 326.846C256.36 327.025 256.01 327.114 255.598 327.114C255.181 327.114 254.83 327.025 254.546 326.846C254.261 326.67 254.046 326.435 253.898 326.143C253.75 325.847 253.676 325.525 253.676 325.175ZM254.916 324.715V325.175C254.916 325.377 254.965 325.567 255.061 325.746C255.161 325.925 255.34 326.015 255.598 326.015C255.857 326.015 256.033 325.927 256.127 325.751C256.223 325.574 256.271 325.383 256.271 325.175V324.715C256.271 324.508 256.226 324.314 256.135 324.136C256.044 323.957 255.865 323.867 255.598 323.867C255.342 323.867 255.165 323.957 255.065 324.136C254.966 324.314 254.916 324.508 254.916 324.715ZM249.198 320.181V319.721C249.198 319.368 249.273 319.046 249.423 318.753C249.574 318.458 249.791 318.222 250.075 318.046C250.362 317.87 250.709 317.782 251.115 317.782C251.536 317.782 251.888 317.87 252.172 318.046C252.456 318.222 252.672 318.458 252.82 318.753C252.967 319.046 253.041 319.368 253.041 319.721V320.181C253.041 320.533 252.966 320.856 252.815 321.148C252.668 321.441 252.45 321.675 252.163 321.851C251.879 322.025 251.53 322.111 251.115 322.111C250.7 322.111 250.35 322.023 250.063 321.847C249.779 321.668 249.563 321.434 249.415 321.144C249.27 320.851 249.198 320.53 249.198 320.181ZM250.446 319.721V320.181C250.446 320.388 250.494 320.58 250.591 320.756C250.69 320.932 250.865 321.02 251.115 321.02C251.377 321.02 251.554 320.932 251.648 320.756C251.744 320.58 251.793 320.388 251.793 320.181V319.721C251.793 319.513 251.747 319.32 251.656 319.141C251.565 318.962 251.385 318.873 251.115 318.873C250.862 318.873 250.688 318.964 250.591 319.145C250.494 319.327 250.446 319.519 250.446 319.721ZM249.76 326.812L255.76 318.084H256.877L250.877 326.812H249.76Z" fill="#404040"/>
<path d="M233.079 296.357V295.027L236.186 292.151C236.45 291.895 236.671 291.665 236.85 291.46C237.032 291.256 237.17 291.055 237.264 290.859C237.357 290.661 237.404 290.446 237.404 290.216C237.404 289.96 237.346 289.74 237.23 289.555C237.113 289.368 236.954 289.224 236.752 289.125C236.551 289.023 236.322 288.972 236.066 288.972C235.799 288.972 235.566 289.026 235.367 289.134C235.168 289.242 235.015 289.396 234.907 289.598C234.799 289.8 234.745 290.04 234.745 290.318H232.994C232.994 289.747 233.123 289.251 233.382 288.831C233.64 288.411 234.002 288.085 234.468 287.855C234.934 287.625 235.471 287.51 236.079 287.51C236.704 287.51 237.248 287.621 237.711 287.842C238.177 288.061 238.539 288.365 238.798 288.754C239.056 289.143 239.186 289.59 239.186 290.092C239.186 290.422 239.12 290.747 238.989 291.068C238.862 291.389 238.633 291.746 238.303 292.138C237.974 292.527 237.509 292.994 236.91 293.54L235.636 294.788V294.848H239.301V296.357H233.079ZM244.059 296.548C243.326 296.545 242.696 296.365 242.167 296.007C241.642 295.649 241.237 295.131 240.953 294.452C240.672 293.773 240.532 292.956 240.535 292.001C240.535 291.05 240.676 290.239 240.957 289.568C241.241 288.898 241.646 288.388 242.172 288.038C242.7 287.686 243.329 287.51 244.059 287.51C244.79 287.51 245.417 287.686 245.943 288.038C246.471 288.391 246.878 288.902 247.162 289.572C247.446 290.24 247.586 291.05 247.584 292.001C247.584 292.959 247.442 293.777 247.157 294.456C246.876 295.135 246.473 295.653 245.947 296.011C245.422 296.369 244.792 296.548 244.059 296.548ZM244.059 295.018C244.559 295.018 244.959 294.767 245.257 294.264C245.555 293.761 245.703 293.007 245.7 292.001C245.7 291.34 245.632 290.788 245.496 290.348C245.362 289.908 245.172 289.577 244.924 289.355C244.68 289.134 244.392 289.023 244.059 289.023C243.562 289.023 243.165 289.271 242.866 289.768C242.568 290.266 242.417 291.01 242.415 292.001C242.415 292.672 242.481 293.232 242.615 293.68C242.751 294.126 242.943 294.462 243.19 294.686C243.437 294.908 243.727 295.018 244.059 295.018ZM253.676 294.72V294.26C253.676 293.911 253.75 293.59 253.898 293.297C254.048 293.001 254.266 292.766 254.55 292.59C254.837 292.411 255.186 292.321 255.598 292.321C256.016 292.321 256.367 292.409 256.651 292.585C256.938 292.761 257.154 292.997 257.298 293.293C257.446 293.585 257.52 293.908 257.52 294.26V294.72C257.52 295.07 257.446 295.392 257.298 295.688C257.151 295.98 256.933 296.215 256.646 296.391C256.36 296.57 256.01 296.659 255.598 296.659C255.181 296.659 254.83 296.57 254.546 296.391C254.261 296.215 254.046 295.98 253.898 295.688C253.75 295.392 253.676 295.07 253.676 294.72ZM254.916 294.26V294.72C254.916 294.922 254.965 295.112 255.061 295.291C255.161 295.47 255.34 295.56 255.598 295.56C255.857 295.56 256.033 295.472 256.127 295.295C256.223 295.119 256.271 294.928 256.271 294.72V294.26C256.271 294.053 256.226 293.859 256.135 293.68C256.044 293.501 255.865 293.412 255.598 293.412C255.342 293.412 255.165 293.501 255.065 293.68C254.966 293.859 254.916 294.053 254.916 294.26ZM249.198 289.726V289.266C249.198 288.913 249.273 288.591 249.423 288.298C249.574 288.003 249.791 287.767 250.075 287.591C250.362 287.415 250.709 287.327 251.115 287.327C251.536 287.327 251.888 287.415 252.172 287.591C252.456 287.767 252.672 288.003 252.82 288.298C252.967 288.591 253.041 288.913 253.041 289.266V289.726C253.041 290.078 252.966 290.401 252.815 290.693C252.668 290.986 252.45 291.22 252.163 291.396C251.879 291.57 251.53 291.656 251.115 291.656C250.7 291.656 250.35 291.568 250.063 291.392C249.779 291.213 249.563 290.979 249.415 290.689C249.27 290.396 249.198 290.075 249.198 289.726ZM250.446 289.266V289.726C250.446 289.933 250.494 290.125 250.591 290.301C250.69 290.477 250.865 290.565 251.115 290.565C251.377 290.565 251.554 290.477 251.648 290.301C251.744 290.125 251.793 289.933 251.793 289.726V289.266C251.793 289.058 251.747 288.865 251.656 288.686C251.565 288.507 251.385 288.418 251.115 288.418C250.862 288.418 250.688 288.509 250.591 288.69C250.494 288.872 250.446 289.064 250.446 289.266ZM249.76 296.357L255.76 287.629H256.877L250.877 296.357H249.76Z" fill="#404040"/>
<path d="M236.428 266.021C235.98 266.018 235.546 265.943 235.129 265.795C234.714 265.647 234.342 265.407 234.012 265.075C233.683 264.742 233.421 264.302 233.228 263.754C233.038 263.205 232.943 262.532 232.943 261.734C232.945 261.001 233.029 260.346 233.194 259.769C233.362 259.19 233.6 258.698 233.91 258.295C234.222 257.892 234.596 257.585 235.031 257.375C235.465 257.161 235.953 257.055 236.492 257.055C237.075 257.055 237.589 257.169 238.035 257.396C238.481 257.62 238.839 257.926 239.109 258.312C239.382 258.698 239.546 259.132 239.603 259.612H237.784C237.712 259.308 237.563 259.069 237.336 258.896C237.109 258.723 236.828 258.636 236.492 258.636C235.924 258.636 235.492 258.883 235.197 259.377C234.904 259.872 234.755 260.544 234.749 261.393H234.809C234.94 261.134 235.116 260.914 235.337 260.732C235.562 260.548 235.816 260.407 236.1 260.311C236.387 260.211 236.69 260.161 237.008 260.161C237.525 260.161 237.985 260.284 238.389 260.528C238.792 260.769 239.11 261.102 239.343 261.525C239.576 261.948 239.693 262.433 239.693 262.978C239.693 263.569 239.555 264.095 239.279 264.555C239.007 265.015 238.624 265.376 238.133 265.637C237.644 265.896 237.076 266.024 236.428 266.021ZM236.42 264.572C236.704 264.572 236.958 264.504 237.183 264.367C237.407 264.231 237.583 264.046 237.711 263.813C237.839 263.58 237.903 263.319 237.903 263.029C237.903 262.74 237.839 262.48 237.711 262.25C237.586 262.019 237.413 261.836 237.191 261.7C236.97 261.563 236.717 261.495 236.433 261.495C236.22 261.495 236.022 261.535 235.84 261.615C235.661 261.694 235.504 261.805 235.367 261.947C235.234 262.089 235.129 262.254 235.052 262.441C234.975 262.626 234.937 262.823 234.937 263.034C234.937 263.315 235.001 263.572 235.129 263.805C235.259 264.038 235.436 264.224 235.657 264.363C235.882 264.502 236.136 264.572 236.42 264.572ZM244.423 266.093C243.69 266.09 243.059 265.91 242.531 265.552C242.005 265.194 241.6 264.676 241.316 263.997C241.035 263.318 240.896 262.501 240.899 261.546C240.899 260.595 241.039 259.784 241.32 259.113C241.605 258.443 242.009 257.933 242.535 257.583C243.063 257.231 243.693 257.055 244.423 257.055C245.153 257.055 245.781 257.231 246.306 257.583C246.835 257.936 247.241 258.447 247.525 259.117C247.809 259.785 247.95 260.595 247.947 261.546C247.947 262.504 247.805 263.322 247.521 264.001C247.239 264.68 246.836 265.198 246.311 265.556C245.785 265.914 245.156 266.093 244.423 266.093ZM244.423 264.563C244.923 264.563 245.322 264.312 245.62 263.809C245.918 263.306 246.066 262.552 246.063 261.546C246.063 260.884 245.995 260.333 245.859 259.893C245.725 259.453 245.535 259.122 245.288 258.9C245.043 258.678 244.755 258.568 244.423 258.568C243.926 258.568 243.528 258.816 243.23 259.313C242.931 259.811 242.781 260.555 242.778 261.546C242.778 262.217 242.845 262.776 242.978 263.225C243.114 263.671 243.306 264.007 243.553 264.231C243.801 264.453 244.09 264.563 244.423 264.563ZM254.04 264.265V263.805C254.04 263.455 254.113 263.134 254.261 262.842C254.412 262.546 254.629 262.311 254.913 262.134C255.2 261.955 255.549 261.866 255.961 261.866C256.379 261.866 256.73 261.954 257.014 262.13C257.301 262.306 257.517 262.542 257.662 262.838C257.809 263.13 257.883 263.453 257.883 263.805V264.265C257.883 264.615 257.809 264.937 257.662 265.232C257.514 265.525 257.297 265.759 257.01 265.936C256.723 266.115 256.373 266.204 255.961 266.204C255.544 266.204 255.193 266.115 254.909 265.936C254.625 265.759 254.409 265.525 254.261 265.232C254.113 264.937 254.04 264.615 254.04 264.265ZM255.28 263.805V264.265C255.28 264.467 255.328 264.657 255.424 264.836C255.524 265.015 255.703 265.105 255.961 265.105C256.22 265.105 256.396 265.017 256.49 264.84C256.586 264.664 256.635 264.473 256.635 264.265V263.805C256.635 263.598 256.589 263.404 256.498 263.225C256.407 263.046 256.228 262.957 255.961 262.957C255.706 262.957 255.528 263.046 255.429 263.225C255.329 263.404 255.28 263.598 255.28 263.805ZM249.561 259.271V258.811C249.561 258.458 249.636 258.136 249.787 257.843C249.937 257.548 250.155 257.312 250.439 257.136C250.726 256.96 251.072 256.872 251.478 256.872C251.899 256.872 252.251 256.96 252.535 257.136C252.819 257.312 253.035 257.548 253.183 257.843C253.331 258.136 253.405 258.458 253.405 258.811V259.271C253.405 259.623 253.329 259.946 253.179 260.238C253.031 260.531 252.814 260.765 252.527 260.941C252.243 261.115 251.893 261.201 251.478 261.201C251.064 261.201 250.713 261.113 250.426 260.937C250.142 260.758 249.926 260.524 249.778 260.234C249.633 259.941 249.561 259.62 249.561 259.271ZM250.809 258.811V259.271C250.809 259.478 250.858 259.67 250.954 259.846C251.054 260.022 251.228 260.11 251.478 260.11C251.74 260.11 251.917 260.022 252.011 259.846C252.108 259.67 252.156 259.478 252.156 259.271V258.811C252.156 258.603 252.111 258.41 252.02 258.231C251.929 258.052 251.748 257.963 251.478 257.963C251.226 257.963 251.051 258.053 250.954 258.235C250.858 258.417 250.809 258.609 250.809 258.811ZM250.123 265.901L256.123 257.174H257.24L251.24 265.901H250.123Z" fill="#404040"/>
</g>
<defs>
<filter id="filter0_d_4106_517" x="0" y="0.50293" width="284" height="348" filterUnits="userSpaceOnUse" color-interpolation-filters="sRGB">
<feFlood flood-opacity="0" result="BackgroundImageFix"/>
<feColorMatrix in="SourceAlpha" type="matrix" values="0 0 0 0 0 0 0 0 0 0 0 0 0 0 0 0 0 0 127 0" result="hardAlpha"/>
<feOffset/>
<feGaussianBlur stdDeviation="2"/>
<feComposite in2="hardAlpha" operator="out"/>
<feColorMatrix type="matrix" values="0 0 0 0 0 0 0 0 0 0 0 0 0 0 0 0 0 0 0.25 0"/>
<feBlend mode="normal" in2="BackgroundImageFix" result="effect1_dropShadow_4106_517"/>
<feBlend mode="normal" in="SourceGraphic" in2="effect1_dropShadow_4106_517" result="shape"/>
</filter>
<filter id="filter1_d_4106_517" x="189.014" y="80.0601" width="35.4951" height="35.4951" filterUnits="userSpaceOnUse" color-interpolation-filters="sRGB">
<feFlood flood-opacity="0" result="BackgroundImageFix"/>
<feColorMatrix in="SourceAlpha" type="matrix" values="0 0 0 0 0 0 0 0 0 0 0 0 0 0 0 0 0 0 127 0" result="hardAlpha"/>
<feOffset/>
<feGaussianBlur stdDeviation="1"/>
<feComposite in2="hardAlpha" operator="out"/>
<feColorMatrix type="matrix" values="0 0 0 0 0 0 0 0 0 0 0 0 0 0 0 0 0 0 0.25 0"/>
<feBlend mode="normal" in2="BackgroundImageFix" result="effect1_dropShadow_4106_517"/>
<feBlend mode="normal" in="SourceGraphic" in2="effect1_dropShadow_4106_517" result="shape"/>
</filter>
<filter id="filter2_d_4106_517" x="67.4106" y="70.6406" width="35.4951" height="35.4951" filterUnits="userSpaceOnUse" color-interpolation-filters="sRGB">
<feFlood flood-opacity="0" result="BackgroundImageFix"/>
<feColorMatrix in="SourceAlpha" type="matrix" values="0 0 0 0 0 0 0 0 0 0 0 0 0 0 0 0 0 0 127 0" result="hardAlpha"/>
<feOffset/>
<feGaussianBlur stdDeviation="1"/>
<feComposite in2="hardAlpha" operator="out"/>
<feColorMatrix type="matrix" values="0 0 0 0 0 0 0 0 0 0 0 0 0 0 0 0 0 0 0.25 0"/>
<feBlend mode="normal" in2="BackgroundImageFix" result="effect1_dropShadow_4106_517"/>
<feBlend mode="normal" in="SourceGraphic" in2="effect1_dropShadow_4106_517" result="shape"/>
</filter>
<filter id="filter3_d_4106_517" x="76.916" y="199.407" width="35.4951" height="35.4951" filterUnits="userSpaceOnUse" color-interpolation-filters="sRGB">
<feFlood flood-opacity="0" result="BackgroundImageFix"/>
<feColorMatrix in="SourceAlpha" type="matrix" values="0 0 0 0 0 0 0 0 0 0 0 0 0 0 0 0 0 0 127 0" result="hardAlpha"/>
<feOffset/>
<feGaussianBlur stdDeviation="1"/>
<feComposite in2="hardAlpha" operator="out"/>
<feColorMatrix type="matrix" values="0 0 0 0 0 0 0 0 0 0 0 0 0 0 0 0 0 0 0.25 0"/>
<feBlend mode="normal" in2="BackgroundImageFix" result="effect1_dropShadow_4106_517"/>
<feBlend mode="normal" in="SourceGraphic" in2="effect1_dropShadow_4106_517" result="shape"/>
</filter>
</defs>
</svg>
