<svg width="24" height="24" viewBox="0 0 24 24" fill="none" xmlns="http://www.w3.org/2000/svg">
<path d="M12 1C5.925 1 1 5.925 1 12C1 14.662 1.946 17.104 3.52 19.006L1.3 23H12C18.075 23 23 18.075 23 12C23 5.925 18.075 1 12 1ZM8.333 13.6C8.64426 14.3138 9.15706 14.9213 9.80851 15.3479C10.46 15.7745 11.2218 16.0018 12.0005 16.0018C12.7792 16.0018 13.541 15.7745 14.1925 15.3479C14.8439 14.9213 15.3567 14.3138 15.668 13.6L16.068 12.683L17.901 13.484L17.501 14.4C17.0341 15.4705 16.2649 16.3814 15.2879 17.0212C14.3109 17.661 13.1684 18.0017 12.0005 18.0017C10.8326 18.0017 9.69014 17.661 8.7131 17.0212C7.73606 16.3814 6.96693 15.4705 6.5 14.4L6.1 13.484L7.932 12.684L8.333 13.6Z" fill="white"/>
</svg>
